<mxfile host="app.diagrams.net" modified="2021-12-10T16:07:07.920Z" agent="5.0 (Windows NT 10.0; Win64; x64) AppleWebKit/537.36 (KHTML, like Gecko) Chrome/96.0.4664.93 Safari/537.36" etag="jnebOIAip4RZ2RIOLu4K" version="15.9.4" type="github">
  <diagram id="R2lEEEUBdFMjLlhIrx00" name="Page-1">
    <mxGraphModel dx="1422" dy="675" grid="1" gridSize="10" guides="1" tooltips="1" connect="1" arrows="1" fold="1" page="1" pageScale="1" pageWidth="850" pageHeight="1100" math="0" shadow="0" extFonts="Permanent Marker^https://fonts.googleapis.com/css?family=Permanent+Marker">
      <root>
        <mxCell id="0" />
        <mxCell id="1" parent="0" />
        <mxCell id="8WeWj6-gea-u3hQ84-Q1-1" value="Person" style="rounded=0;whiteSpace=wrap;html=1;" parent="1" vertex="1">
          <mxGeometry x="330" y="160" width="90" height="40" as="geometry" />
        </mxCell>
        <mxCell id="8WeWj6-gea-u3hQ84-Q1-2" value="name" style="ellipse;whiteSpace=wrap;html=1;" parent="1" vertex="1">
          <mxGeometry x="290" y="100" width="60" height="30" as="geometry" />
        </mxCell>
        <mxCell id="8WeWj6-gea-u3hQ84-Q1-3" value="" style="endArrow=none;html=1;rounded=0;entryX=1;entryY=1;entryDx=0;entryDy=0;" parent="1" source="8WeWj6-gea-u3hQ84-Q1-1" target="8WeWj6-gea-u3hQ84-Q1-2" edge="1">
          <mxGeometry width="50" height="50" relative="1" as="geometry">
            <mxPoint x="380" y="310" as="sourcePoint" />
            <mxPoint x="430" y="260" as="targetPoint" />
          </mxGeometry>
        </mxCell>
        <mxCell id="8WeWj6-gea-u3hQ84-Q1-4" value="&lt;u&gt;national ID card nr&lt;/u&gt;" style="ellipse;whiteSpace=wrap;html=1;" parent="1" vertex="1">
          <mxGeometry x="410" y="100" width="120" height="40" as="geometry" />
        </mxCell>
        <mxCell id="8WeWj6-gea-u3hQ84-Q1-5" value="" style="endArrow=none;html=1;rounded=0;exitX=0.75;exitY=0;exitDx=0;exitDy=0;" parent="1" source="8WeWj6-gea-u3hQ84-Q1-1" target="8WeWj6-gea-u3hQ84-Q1-4" edge="1">
          <mxGeometry width="50" height="50" relative="1" as="geometry">
            <mxPoint x="380" y="310" as="sourcePoint" />
            <mxPoint x="430" y="260" as="targetPoint" />
          </mxGeometry>
        </mxCell>
        <mxCell id="8WeWj6-gea-u3hQ84-Q1-9" value="" style="shape=link;html=1;rounded=0;exitX=0.5;exitY=1;exitDx=0;exitDy=0;entryX=1;entryY=0.5;entryDx=0;entryDy=0;" parent="1" source="8WeWj6-gea-u3hQ84-Q1-1" target="8WeWj6-gea-u3hQ84-Q1-12" edge="1">
          <mxGeometry relative="1" as="geometry">
            <mxPoint x="320" y="280" as="sourcePoint" />
            <mxPoint x="395" y="240" as="targetPoint" />
          </mxGeometry>
        </mxCell>
        <mxCell id="8WeWj6-gea-u3hQ84-Q1-12" value="" style="triangle;whiteSpace=wrap;html=1;rotation=-90;" parent="1" vertex="1">
          <mxGeometry x="360" y="220" width="30" height="40" as="geometry" />
        </mxCell>
        <mxCell id="8WeWj6-gea-u3hQ84-Q1-13" value="" style="endArrow=none;html=1;rounded=0;entryX=0;entryY=0.25;entryDx=0;entryDy=0;exitX=0.5;exitY=0;exitDx=0;exitDy=0;" parent="1" source="8WeWj6-gea-u3hQ84-Q1-15" target="8WeWj6-gea-u3hQ84-Q1-12" edge="1">
          <mxGeometry width="50" height="50" relative="1" as="geometry">
            <mxPoint x="120" y="320" as="sourcePoint" />
            <mxPoint x="430" y="260" as="targetPoint" />
            <Array as="points">
              <mxPoint x="115" y="280" />
              <mxPoint x="365" y="280" />
            </Array>
          </mxGeometry>
        </mxCell>
        <mxCell id="8WeWj6-gea-u3hQ84-Q1-15" value="Sailor" style="rounded=0;whiteSpace=wrap;html=1;" parent="1" vertex="1">
          <mxGeometry x="70" y="290" width="90" height="40" as="geometry" />
        </mxCell>
        <mxCell id="8WeWj6-gea-u3hQ84-Q1-16" value="" style="endArrow=none;html=1;rounded=0;entryX=0;entryY=0.75;entryDx=0;entryDy=0;exitX=0.5;exitY=0;exitDx=0;exitDy=0;" parent="1" source="8WeWj6-gea-u3hQ84-Q1-18" target="8WeWj6-gea-u3hQ84-Q1-12" edge="1">
          <mxGeometry width="50" height="50" relative="1" as="geometry">
            <mxPoint x="680" y="300" as="sourcePoint" />
            <mxPoint x="430" y="260" as="targetPoint" />
            <Array as="points">
              <mxPoint x="535" y="280" />
              <mxPoint x="385" y="280" />
            </Array>
          </mxGeometry>
        </mxCell>
        <mxCell id="8WeWj6-gea-u3hQ84-Q1-18" value="Owner" style="rounded=0;whiteSpace=wrap;html=1;" parent="1" vertex="1">
          <mxGeometry x="490.01" y="300" width="90" height="40" as="geometry" />
        </mxCell>
        <mxCell id="8WeWj6-gea-u3hQ84-Q1-19" value="" style="endArrow=none;html=1;rounded=0;exitX=0.5;exitY=1;exitDx=0;exitDy=0;" parent="1" source="8WeWj6-gea-u3hQ84-Q1-15" target="8WeWj6-gea-u3hQ84-Q1-20" edge="1">
          <mxGeometry relative="1" as="geometry">
            <mxPoint x="35" y="420" as="sourcePoint" />
            <mxPoint x="115" y="410" as="targetPoint" />
          </mxGeometry>
        </mxCell>
        <mxCell id="8WeWj6-gea-u3hQ84-Q1-20" value="makes_an&amp;gt;" style="shape=rhombus;perimeter=rhombusPerimeter;whiteSpace=wrap;html=1;align=center;rotation=90;" parent="1" vertex="1">
          <mxGeometry x="76.25" y="360" width="77.5" height="62.5" as="geometry" />
        </mxCell>
        <mxCell id="8WeWj6-gea-u3hQ84-Q1-28" value="" style="endArrow=classic;html=1;rounded=0;" parent="1" edge="1">
          <mxGeometry width="50" height="50" relative="1" as="geometry">
            <mxPoint x="240" y="520" as="sourcePoint" />
            <mxPoint x="240" y="520" as="targetPoint" />
          </mxGeometry>
        </mxCell>
        <mxCell id="8WeWj6-gea-u3hQ84-Q1-30" value="Reserve" style="rounded=0;whiteSpace=wrap;html=1;" parent="1" vertex="1">
          <mxGeometry x="210" y="465.75" width="90" height="40" as="geometry" />
        </mxCell>
        <mxCell id="8WeWj6-gea-u3hQ84-Q1-36" value="scheduled date" style="ellipse;whiteSpace=wrap;html=1;" parent="1" vertex="1">
          <mxGeometry x="160" y="400" width="110" height="30" as="geometry" />
        </mxCell>
        <mxCell id="8WeWj6-gea-u3hQ84-Q1-37" value="" style="endArrow=none;html=1;rounded=0;exitX=0.25;exitY=0;exitDx=0;exitDy=0;entryX=0.5;entryY=1;entryDx=0;entryDy=0;" parent="1" source="8WeWj6-gea-u3hQ84-Q1-30" target="8WeWj6-gea-u3hQ84-Q1-36" edge="1">
          <mxGeometry relative="1" as="geometry">
            <mxPoint x="340" y="330" as="sourcePoint" />
            <mxPoint x="500" y="330" as="targetPoint" />
          </mxGeometry>
        </mxCell>
        <mxCell id="8WeWj6-gea-u3hQ84-Q1-38" value="(IC_1)" style="text;html=1;align=center;verticalAlign=middle;resizable=0;points=[];autosize=1;strokeColor=none;fillColor=none;" parent="1" vertex="1">
          <mxGeometry x="130" y="350" width="50" height="20" as="geometry" />
        </mxCell>
        <mxCell id="8WeWj6-gea-u3hQ84-Q1-39" value="&lt;u&gt;reservation nr&lt;/u&gt;" style="ellipse;whiteSpace=wrap;html=1;" parent="1" vertex="1">
          <mxGeometry x="260" y="370" width="110" height="30" as="geometry" />
        </mxCell>
        <mxCell id="8WeWj6-gea-u3hQ84-Q1-40" value="" style="endArrow=none;html=1;rounded=0;exitX=0.75;exitY=0;exitDx=0;exitDy=0;entryX=0;entryY=1;entryDx=0;entryDy=0;" parent="1" source="8WeWj6-gea-u3hQ84-Q1-30" target="8WeWj6-gea-u3hQ84-Q1-39" edge="1">
          <mxGeometry relative="1" as="geometry">
            <mxPoint x="340" y="380" as="sourcePoint" />
            <mxPoint x="500" y="380" as="targetPoint" />
          </mxGeometry>
        </mxCell>
        <mxCell id="8WeWj6-gea-u3hQ84-Q1-42" value="&amp;lt;has_been" style="shape=rhombus;perimeter=rhombusPerimeter;whiteSpace=wrap;html=1;align=center;rotation=0;" parent="1" vertex="1">
          <mxGeometry x="370" y="454.5" width="77.5" height="62.5" as="geometry" />
        </mxCell>
        <mxCell id="8WeWj6-gea-u3hQ84-Q1-43" value="(IC_1)" style="text;html=1;align=center;verticalAlign=middle;resizable=0;points=[];autosize=1;strokeColor=none;fillColor=none;" parent="1" vertex="1">
          <mxGeometry x="383.75" y="430" width="50" height="20" as="geometry" />
        </mxCell>
        <mxCell id="8WeWj6-gea-u3hQ84-Q1-47" value="" style="shape=link;html=1;rounded=0;exitX=0.5;exitY=1;exitDx=0;exitDy=0;width=4;entryX=0;entryY=0.5;entryDx=0;entryDy=0;" parent="1" source="8WeWj6-gea-u3hQ84-Q1-18" target="8WeWj6-gea-u3hQ84-Q1-48" edge="1">
          <mxGeometry relative="1" as="geometry">
            <mxPoint x="405" y="210" as="sourcePoint" />
            <mxPoint x="745" y="400" as="targetPoint" />
          </mxGeometry>
        </mxCell>
        <mxCell id="8WeWj6-gea-u3hQ84-Q1-48" value="owns&amp;gt;" style="shape=rhombus;perimeter=rhombusPerimeter;whiteSpace=wrap;html=1;align=center;rotation=90;" parent="1" vertex="1">
          <mxGeometry x="503.13" y="370" width="63.75" height="54.5" as="geometry" />
        </mxCell>
        <mxCell id="8WeWj6-gea-u3hQ84-Q1-50" value="" style="endArrow=none;html=1;rounded=0;entryX=1;entryY=0.5;entryDx=0;entryDy=0;exitX=0.5;exitY=0;exitDx=0;exitDy=0;" parent="1" source="8WeWj6-gea-u3hQ84-Q1-51" target="8WeWj6-gea-u3hQ84-Q1-48" edge="1">
          <mxGeometry relative="1" as="geometry">
            <mxPoint x="745" y="480" as="sourcePoint" />
            <mxPoint x="520" y="420" as="targetPoint" />
            <Array as="points" />
          </mxGeometry>
        </mxCell>
        <mxCell id="8WeWj6-gea-u3hQ84-Q1-51" value="Boat" style="rounded=0;whiteSpace=wrap;html=1;" parent="1" vertex="1">
          <mxGeometry x="490" y="465.75" width="90" height="40" as="geometry" />
        </mxCell>
        <mxCell id="8WeWj6-gea-u3hQ84-Q1-52" value="" style="shape=link;html=1;rounded=0;entryX=0;entryY=0.5;entryDx=0;entryDy=0;startArrow=none;width=5;" parent="1" target="8WeWj6-gea-u3hQ84-Q1-30" edge="1">
          <mxGeometry relative="1" as="geometry">
            <mxPoint x="116" y="440" as="sourcePoint" />
            <mxPoint x="520" y="420" as="targetPoint" />
            <Array as="points">
              <mxPoint x="116" y="486" />
            </Array>
          </mxGeometry>
        </mxCell>
        <mxCell id="8WeWj6-gea-u3hQ84-Q1-59" value="" style="triangle;whiteSpace=wrap;html=1;fillColor=#000000;rotation=0;" parent="1" vertex="1">
          <mxGeometry x="350" y="475.75" width="15" height="20" as="geometry" />
        </mxCell>
        <mxCell id="8WeWj6-gea-u3hQ84-Q1-60" value="" style="shape=link;html=1;rounded=0;startArrow=none;exitX=1;exitY=0.5;exitDx=0;exitDy=0;endArrow=none;" parent="1" source="8WeWj6-gea-u3hQ84-Q1-30" target="8WeWj6-gea-u3hQ84-Q1-59" edge="1">
          <mxGeometry relative="1" as="geometry">
            <mxPoint x="330" y="520" as="sourcePoint" />
            <mxPoint x="450" y="520" as="targetPoint" />
            <Array as="points" />
          </mxGeometry>
        </mxCell>
        <mxCell id="8WeWj6-gea-u3hQ84-Q1-69" value="" style="endArrow=none;html=1;rounded=0;entryX=0;entryY=0.5;entryDx=0;entryDy=0;exitX=1;exitY=0.5;exitDx=0;exitDy=0;" parent="1" source="8WeWj6-gea-u3hQ84-Q1-42" target="8WeWj6-gea-u3hQ84-Q1-51" edge="1">
          <mxGeometry width="50" height="50" relative="1" as="geometry">
            <mxPoint x="420" y="440" as="sourcePoint" />
            <mxPoint x="470" y="390" as="targetPoint" />
          </mxGeometry>
        </mxCell>
        <mxCell id="8WeWj6-gea-u3hQ84-Q1-63" value="" style="triangle;whiteSpace=wrap;html=1;fillColor=#000000;rotation=-90;" parent="1" vertex="1">
          <mxGeometry x="107.5" y="430" width="15" height="20" as="geometry" />
        </mxCell>
        <mxCell id="8WeWj6-gea-u3hQ84-Q1-70" value="" style="shape=link;html=1;rounded=0;entryX=0;entryY=0.5;entryDx=0;entryDy=0;startArrow=none;width=5;endArrow=none;" parent="1" target="8WeWj6-gea-u3hQ84-Q1-63" edge="1">
          <mxGeometry relative="1" as="geometry">
            <mxPoint x="116" y="440" as="sourcePoint" />
            <mxPoint x="240" y="520" as="targetPoint" />
            <Array as="points" />
          </mxGeometry>
        </mxCell>
        <mxCell id="8WeWj6-gea-u3hQ84-Q1-73" value="" style="endArrow=none;html=1;rounded=0;entryX=0;entryY=1;entryDx=0;entryDy=0;exitX=0.75;exitY=0;exitDx=0;exitDy=0;" parent="1" source="8WeWj6-gea-u3hQ84-Q1-51" target="8WeWj6-gea-u3hQ84-Q1-74" edge="1">
          <mxGeometry width="50" height="50" relative="1" as="geometry">
            <mxPoint x="440" y="350" as="sourcePoint" />
            <mxPoint x="627.7311944536909" y="390.7635876018587" as="targetPoint" />
          </mxGeometry>
        </mxCell>
        <mxCell id="8WeWj6-gea-u3hQ84-Q1-74" value="&lt;u&gt;national ID&lt;/u&gt;" style="ellipse;whiteSpace=wrap;html=1;" parent="1" vertex="1">
          <mxGeometry x="573.13" y="350" width="110" height="35" as="geometry" />
        </mxCell>
        <mxCell id="8WeWj6-gea-u3hQ84-Q1-79" value="" style="endArrow=none;html=1;rounded=0;exitX=1;exitY=0.5;exitDx=0;exitDy=0;" parent="1" source="8WeWj6-gea-u3hQ84-Q1-51" edge="1">
          <mxGeometry width="50" height="50" relative="1" as="geometry">
            <mxPoint x="400" y="380" as="sourcePoint" />
            <mxPoint x="620" y="486" as="targetPoint" />
          </mxGeometry>
        </mxCell>
        <mxCell id="8WeWj6-gea-u3hQ84-Q1-80" value="name" style="ellipse;whiteSpace=wrap;html=1;" parent="1" vertex="1">
          <mxGeometry x="601.5699999999999" y="393.75" width="53.12" height="28.75" as="geometry" />
        </mxCell>
        <mxCell id="8WeWj6-gea-u3hQ84-Q1-82" value="" style="endArrow=none;html=1;rounded=0;entryX=1;entryY=0;entryDx=0;entryDy=0;exitX=0;exitY=1;exitDx=0;exitDy=0;" parent="1" source="8WeWj6-gea-u3hQ84-Q1-80" target="8WeWj6-gea-u3hQ84-Q1-51" edge="1">
          <mxGeometry width="50" height="50" relative="1" as="geometry">
            <mxPoint x="350" y="390" as="sourcePoint" />
            <mxPoint x="400" y="340" as="targetPoint" />
          </mxGeometry>
        </mxCell>
        <mxCell id="8WeWj6-gea-u3hQ84-Q1-83" value="year of registration" style="ellipse;whiteSpace=wrap;html=1;" parent="1" vertex="1">
          <mxGeometry x="660" y="382.25" width="110" height="30" as="geometry" />
        </mxCell>
        <mxCell id="8WeWj6-gea-u3hQ84-Q1-84" value="" style="endArrow=none;html=1;rounded=0;entryX=0;entryY=1;entryDx=0;entryDy=0;exitX=1;exitY=0.25;exitDx=0;exitDy=0;" parent="1" source="8WeWj6-gea-u3hQ84-Q1-51" target="8WeWj6-gea-u3hQ84-Q1-83" edge="1">
          <mxGeometry width="50" height="50" relative="1" as="geometry">
            <mxPoint x="567.5" y="475.75" as="sourcePoint" />
            <mxPoint x="598.6796340527426" y="389.6937494746069" as="targetPoint" />
          </mxGeometry>
        </mxCell>
        <mxCell id="8WeWj6-gea-u3hQ84-Q1-86" value="has&amp;gt;" style="shape=rhombus;double=1;perimeter=rhombusPerimeter;whiteSpace=wrap;html=1;align=center;fillColor=none;" parent="1" vertex="1">
          <mxGeometry x="620" y="463.63" width="60" height="44.25" as="geometry" />
        </mxCell>
        <mxCell id="8WeWj6-gea-u3hQ84-Q1-87" value="" style="triangle;whiteSpace=wrap;html=1;fillColor=#000000;rotation=-180;" parent="1" vertex="1">
          <mxGeometry x="680" y="475.75" width="15" height="20" as="geometry" />
        </mxCell>
        <mxCell id="8WeWj6-gea-u3hQ84-Q1-93" value="&lt;span style=&quot;border-bottom: 1px dotted&quot;&gt;MMSI ID&lt;/span&gt;" style="ellipse;whiteSpace=wrap;html=1;align=center;fillColor=none;" parent="1" vertex="1">
          <mxGeometry x="760" y="422.5" width="80" height="27.5" as="geometry" />
        </mxCell>
        <mxCell id="8WeWj6-gea-u3hQ84-Q1-94" value="" style="endArrow=none;html=1;rounded=0;entryX=0.5;entryY=1;entryDx=0;entryDy=0;exitX=0.25;exitY=0;exitDx=0;exitDy=0;" parent="1" source="8WeWj6-gea-u3hQ84-Q1-90" target="8WeWj6-gea-u3hQ84-Q1-93" edge="1">
          <mxGeometry relative="1" as="geometry">
            <mxPoint x="510" y="510" as="sourcePoint" />
            <mxPoint x="670" y="510" as="targetPoint" />
          </mxGeometry>
        </mxCell>
        <mxCell id="8WeWj6-gea-u3hQ84-Q1-95" value="" style="endArrow=none;html=1;rounded=0;exitX=0.5;exitY=1;exitDx=0;exitDy=0;" parent="1" source="8WeWj6-gea-u3hQ84-Q1-30" edge="1">
          <mxGeometry relative="1" as="geometry">
            <mxPoint x="340" y="460" as="sourcePoint" />
            <mxPoint x="255" y="540" as="targetPoint" />
          </mxGeometry>
        </mxCell>
        <mxCell id="8WeWj6-gea-u3hQ84-Q1-97" value="has&amp;gt;" style="shape=rhombus;double=1;perimeter=rhombusPerimeter;whiteSpace=wrap;html=1;align=center;fillColor=none;rotation=90;" parent="1" vertex="1">
          <mxGeometry x="228.67" y="538.67" width="52.66" height="44.25" as="geometry" />
        </mxCell>
        <mxCell id="8WeWj6-gea-u3hQ84-Q1-90" value="Fixed VHF Radio" style="shape=ext;margin=3;double=1;whiteSpace=wrap;html=1;align=center;fillColor=none;" parent="1" vertex="1">
          <mxGeometry x="730" y="465.75" width="100" height="40" as="geometry" />
        </mxCell>
        <mxCell id="8WeWj6-gea-u3hQ84-Q1-99" value="" style="shape=link;html=1;rounded=0;exitX=0;exitY=0.5;exitDx=0;exitDy=0;endArrow=none;" parent="1" source="8WeWj6-gea-u3hQ84-Q1-87" target="8WeWj6-gea-u3hQ84-Q1-90" edge="1">
          <mxGeometry relative="1" as="geometry">
            <mxPoint x="695" y="485.75" as="sourcePoint" />
            <mxPoint x="740" y="486" as="targetPoint" />
          </mxGeometry>
        </mxCell>
        <mxCell id="8WeWj6-gea-u3hQ84-Q1-100" value="quantity" style="ellipse;whiteSpace=wrap;html=1;rotation=0;" parent="1" vertex="1">
          <mxGeometry x="293.43999999999994" y="530" width="53.12" height="28.75" as="geometry" />
        </mxCell>
        <mxCell id="8WeWj6-gea-u3hQ84-Q1-101" value="" style="endArrow=none;html=1;rounded=0;exitX=0.5;exitY=0;exitDx=0;exitDy=0;entryX=0;entryY=0.5;entryDx=0;entryDy=0;" parent="1" source="8WeWj6-gea-u3hQ84-Q1-97" target="8WeWj6-gea-u3hQ84-Q1-100" edge="1">
          <mxGeometry relative="1" as="geometry">
            <mxPoint x="350" y="460" as="sourcePoint" />
            <mxPoint x="300" y="550" as="targetPoint" />
          </mxGeometry>
        </mxCell>
        <mxCell id="8WeWj6-gea-u3hQ84-Q1-103" value="" style="triangle;whiteSpace=wrap;html=1;fillColor=#000000;rotation=-90;" parent="1" vertex="1">
          <mxGeometry x="247.5" y="582.92" width="15" height="20" as="geometry" />
        </mxCell>
        <mxCell id="8WeWj6-gea-u3hQ84-Q1-104" value="" style="shape=link;html=1;rounded=0;startArrow=none;exitX=0;exitY=0.5;exitDx=0;exitDy=0;endArrow=none;" parent="1" source="8WeWj6-gea-u3hQ84-Q1-103" edge="1">
          <mxGeometry relative="1" as="geometry">
            <mxPoint x="310" y="495.75" as="sourcePoint" />
            <mxPoint x="255" y="630" as="targetPoint" />
            <Array as="points" />
          </mxGeometry>
        </mxCell>
        <mxCell id="8WeWj6-gea-u3hQ84-Q1-105" value="Trip" style="shape=ext;margin=3;double=1;whiteSpace=wrap;html=1;align=center;fillColor=none;" parent="1" vertex="1">
          <mxGeometry x="205" y="630" width="95" height="40" as="geometry" />
        </mxCell>
        <mxCell id="8WeWj6-gea-u3hQ84-Q1-106" value="&lt;span style=&quot;border-bottom: 1px dotted&quot;&gt;take-off date&lt;/span&gt;" style="ellipse;whiteSpace=wrap;html=1;align=center;fillColor=none;" parent="1" vertex="1">
          <mxGeometry x="125" y="558.75" width="80" height="30" as="geometry" />
        </mxCell>
        <mxCell id="8WeWj6-gea-u3hQ84-Q1-107" value="&lt;span style=&quot;border-bottom: 1px dotted&quot;&gt;trip duration&lt;/span&gt;" style="ellipse;whiteSpace=wrap;html=1;align=center;fillColor=none;" parent="1" vertex="1">
          <mxGeometry x="115" y="602.92" width="80" height="30" as="geometry" />
        </mxCell>
        <mxCell id="8WeWj6-gea-u3hQ84-Q1-108" value="" style="endArrow=none;html=1;rounded=0;exitX=0.5;exitY=1;exitDx=0;exitDy=0;entryX=0;entryY=0.5;entryDx=0;entryDy=0;" parent="1" source="8WeWj6-gea-u3hQ84-Q1-107" target="8WeWj6-gea-u3hQ84-Q1-105" edge="1">
          <mxGeometry relative="1" as="geometry">
            <mxPoint x="370" y="540" as="sourcePoint" />
            <mxPoint x="530" y="540" as="targetPoint" />
          </mxGeometry>
        </mxCell>
        <mxCell id="8WeWj6-gea-u3hQ84-Q1-109" value="" style="endArrow=none;html=1;rounded=0;exitX=1;exitY=1;exitDx=0;exitDy=0;entryX=0.25;entryY=0;entryDx=0;entryDy=0;" parent="1" source="8WeWj6-gea-u3hQ84-Q1-106" target="8WeWj6-gea-u3hQ84-Q1-105" edge="1">
          <mxGeometry relative="1" as="geometry">
            <mxPoint x="370" y="540" as="sourcePoint" />
            <mxPoint x="530" y="540" as="targetPoint" />
          </mxGeometry>
        </mxCell>
        <mxCell id="8WeWj6-gea-u3hQ84-Q1-110" value="" style="shape=link;html=1;rounded=0;startArrow=none;exitX=0.5;exitY=1;exitDx=0;exitDy=0;endArrow=none;entryX=0;entryY=0.5;entryDx=0;entryDy=0;" parent="1" source="8WeWj6-gea-u3hQ84-Q1-105" target="8WeWj6-gea-u3hQ84-Q1-111" edge="1">
          <mxGeometry relative="1" as="geometry">
            <mxPoint x="265" y="610.4200000000001" as="sourcePoint" />
            <mxPoint x="250" y="700" as="targetPoint" />
            <Array as="points" />
          </mxGeometry>
        </mxCell>
        <mxCell id="8WeWj6-gea-u3hQ84-Q1-111" value="has&amp;gt;" style="shape=rhombus;perimeter=rhombusPerimeter;whiteSpace=wrap;html=1;align=center;rotation=90;" parent="1" vertex="1">
          <mxGeometry x="223.09" y="710" width="58.24" height="49.42" as="geometry" />
        </mxCell>
        <mxCell id="8WeWj6-gea-u3hQ84-Q1-112" value="(IC_2)" style="text;html=1;align=center;verticalAlign=middle;resizable=0;points=[];autosize=1;strokeColor=none;fillColor=none;" parent="1" vertex="1">
          <mxGeometry x="178.67000000000002" y="710" width="50" height="20" as="geometry" />
        </mxCell>
        <mxCell id="8WeWj6-gea-u3hQ84-Q1-115" value="" style="endArrow=none;html=1;rounded=0;exitX=1;exitY=0.5;exitDx=0;exitDy=0;startArrow=none;" parent="1" source="8WeWj6-gea-u3hQ84-Q1-114" edge="1">
          <mxGeometry relative="1" as="geometry">
            <mxPoint x="252.21000000000004" y="763.8299999999999" as="sourcePoint" />
            <mxPoint x="252" y="840" as="targetPoint" />
          </mxGeometry>
        </mxCell>
        <mxCell id="YaRrDJVlMC0HSLVpGaCm-11" value="" style="edgeStyle=orthogonalEdgeStyle;rounded=0;orthogonalLoop=1;jettySize=auto;html=1;" edge="1" parent="1" source="8WeWj6-gea-u3hQ84-Q1-114" target="YaRrDJVlMC0HSLVpGaCm-10">
          <mxGeometry relative="1" as="geometry" />
        </mxCell>
        <mxCell id="8WeWj6-gea-u3hQ84-Q1-114" value="Location" style="rounded=0;whiteSpace=wrap;html=1;" parent="1" vertex="1">
          <mxGeometry x="207.21" y="800" width="90" height="40" as="geometry" />
        </mxCell>
        <mxCell id="8WeWj6-gea-u3hQ84-Q1-116" value="" style="endArrow=none;html=1;rounded=0;exitX=1;exitY=0.5;exitDx=0;exitDy=0;" parent="1" source="8WeWj6-gea-u3hQ84-Q1-111" target="8WeWj6-gea-u3hQ84-Q1-114" edge="1">
          <mxGeometry relative="1" as="geometry">
            <mxPoint x="252.21000000000004" y="763.8299999999999" as="sourcePoint" />
            <mxPoint x="252" y="840" as="targetPoint" />
          </mxGeometry>
        </mxCell>
        <mxCell id="8WeWj6-gea-u3hQ84-Q1-118" value="" style="shape=link;html=1;rounded=0;startArrow=none;endArrow=none;entryX=0;entryY=0.5;entryDx=0;entryDy=0;" parent="1" target="8WeWj6-gea-u3hQ84-Q1-114" edge="1">
          <mxGeometry relative="1" as="geometry">
            <mxPoint x="180" y="820" as="sourcePoint" />
            <mxPoint x="360" y="495.75" as="targetPoint" />
            <Array as="points" />
          </mxGeometry>
        </mxCell>
        <mxCell id="8WeWj6-gea-u3hQ84-Q1-119" value="x" style="triangle;whiteSpace=wrap;html=1;fillColor=none;" parent="1" vertex="1">
          <mxGeometry x="160" y="800" width="22.5" height="40" as="geometry" />
        </mxCell>
        <mxCell id="8WeWj6-gea-u3hQ84-Q1-120" value="" style="endArrow=none;html=1;rounded=0;exitX=0;exitY=0.25;exitDx=0;exitDy=0;" parent="1" source="8WeWj6-gea-u3hQ84-Q1-119" edge="1">
          <mxGeometry width="50" height="50" relative="1" as="geometry">
            <mxPoint x="380" y="720" as="sourcePoint" />
            <mxPoint x="130" y="780" as="targetPoint" />
            <Array as="points">
              <mxPoint x="140" y="810" />
              <mxPoint x="140" y="780" />
            </Array>
          </mxGeometry>
        </mxCell>
        <mxCell id="8WeWj6-gea-u3hQ84-Q1-121" value="Start location" style="rounded=0;whiteSpace=wrap;html=1;" parent="1" vertex="1">
          <mxGeometry x="40" y="759.42" width="90" height="40" as="geometry" />
        </mxCell>
        <mxCell id="8WeWj6-gea-u3hQ84-Q1-122" value="" style="endArrow=none;html=1;rounded=0;exitX=0;exitY=0.75;exitDx=0;exitDy=0;" parent="1" source="8WeWj6-gea-u3hQ84-Q1-119" edge="1">
          <mxGeometry width="50" height="50" relative="1" as="geometry">
            <mxPoint x="380" y="720" as="sourcePoint" />
            <mxPoint x="120" y="860" as="targetPoint" />
            <Array as="points">
              <mxPoint x="140" y="830" />
              <mxPoint x="140" y="860" />
            </Array>
          </mxGeometry>
        </mxCell>
        <mxCell id="8WeWj6-gea-u3hQ84-Q1-123" value="End location" style="rounded=0;whiteSpace=wrap;html=1;" parent="1" vertex="1">
          <mxGeometry x="40" y="840" width="90" height="40" as="geometry" />
        </mxCell>
        <mxCell id="8WeWj6-gea-u3hQ84-Q1-127" value="" style="triangle;whiteSpace=wrap;html=1;fillColor=none;rotation=-90;" parent="1" vertex="1">
          <mxGeometry x="238.46" y="860" width="33.09" height="50" as="geometry" />
        </mxCell>
        <mxCell id="8WeWj6-gea-u3hQ84-Q1-128" value="x" style="text;html=1;align=center;verticalAlign=middle;resizable=0;points=[];autosize=1;strokeColor=none;fillColor=none;" parent="1" vertex="1">
          <mxGeometry x="245.01" y="875" width="20" height="20" as="geometry" />
        </mxCell>
        <mxCell id="8WeWj6-gea-u3hQ84-Q1-129" value="" style="shape=link;html=1;rounded=0;startArrow=none;exitX=1;exitY=0.5;exitDx=0;exitDy=0;endArrow=none;" parent="1" source="8WeWj6-gea-u3hQ84-Q1-127" edge="1">
          <mxGeometry relative="1" as="geometry">
            <mxPoint x="262.5" y="680" as="sourcePoint" />
            <mxPoint x="255" y="840" as="targetPoint" />
            <Array as="points" />
          </mxGeometry>
        </mxCell>
        <mxCell id="YaRrDJVlMC0HSLVpGaCm-1" value="" style="endArrow=none;html=1;rounded=0;entryX=0;entryY=0.25;entryDx=0;entryDy=0;exitX=0.5;exitY=0;exitDx=0;exitDy=0;" edge="1" parent="1" source="YaRrDJVlMC0HSLVpGaCm-2" target="8WeWj6-gea-u3hQ84-Q1-127">
          <mxGeometry width="50" height="50" relative="1" as="geometry">
            <mxPoint x="130" y="940" as="sourcePoint" />
            <mxPoint x="380" y="940" as="targetPoint" />
            <Array as="points">
              <mxPoint x="121" y="920" />
              <mxPoint x="243" y="920" />
            </Array>
          </mxGeometry>
        </mxCell>
        <mxCell id="YaRrDJVlMC0HSLVpGaCm-2" value="Ports" style="rounded=0;whiteSpace=wrap;html=1;" vertex="1" parent="1">
          <mxGeometry x="76.25" y="940" width="90" height="30" as="geometry" />
        </mxCell>
        <mxCell id="YaRrDJVlMC0HSLVpGaCm-4" value="" style="endArrow=none;html=1;rounded=0;entryX=0;entryY=0.5;entryDx=0;entryDy=0;" edge="1" parent="1" target="8WeWj6-gea-u3hQ84-Q1-127">
          <mxGeometry width="50" height="50" relative="1" as="geometry">
            <mxPoint x="255" y="950" as="sourcePoint" />
            <mxPoint x="257" y="920" as="targetPoint" />
          </mxGeometry>
        </mxCell>
        <mxCell id="YaRrDJVlMC0HSLVpGaCm-5" value="Marinas" style="rounded=0;whiteSpace=wrap;html=1;" vertex="1" parent="1">
          <mxGeometry x="210.01" y="950" width="90" height="30" as="geometry" />
        </mxCell>
        <mxCell id="YaRrDJVlMC0HSLVpGaCm-7" value="Wharfs" style="rounded=0;whiteSpace=wrap;html=1;" vertex="1" parent="1">
          <mxGeometry x="320" y="940" width="90" height="30" as="geometry" />
        </mxCell>
        <mxCell id="YaRrDJVlMC0HSLVpGaCm-8" value="" style="endArrow=none;html=1;rounded=0;entryX=0;entryY=0.75;entryDx=0;entryDy=0;exitX=0.5;exitY=0;exitDx=0;exitDy=0;" edge="1" parent="1" source="YaRrDJVlMC0HSLVpGaCm-7" target="8WeWj6-gea-u3hQ84-Q1-127">
          <mxGeometry width="50" height="50" relative="1" as="geometry">
            <mxPoint x="350" y="980" as="sourcePoint" />
            <mxPoint x="400" y="930" as="targetPoint" />
            <Array as="points">
              <mxPoint x="365" y="920" />
              <mxPoint x="268" y="920" />
            </Array>
          </mxGeometry>
        </mxCell>
        <mxCell id="YaRrDJVlMC0HSLVpGaCm-9" value="" style="shape=link;html=1;rounded=0;startArrow=none;exitX=1;exitY=0.5;exitDx=0;exitDy=0;endArrow=none;" edge="1" parent="1" source="YaRrDJVlMC0HSLVpGaCm-10">
          <mxGeometry relative="1" as="geometry">
            <mxPoint x="310" y="495.75" as="sourcePoint" />
            <mxPoint x="490" y="820" as="targetPoint" />
            <Array as="points" />
          </mxGeometry>
        </mxCell>
        <mxCell id="YaRrDJVlMC0HSLVpGaCm-10" value="exists_in&amp;gt;" style="rhombus;whiteSpace=wrap;html=1;rounded=0;" vertex="1" parent="1">
          <mxGeometry x="365" y="790" width="77.79" height="60" as="geometry" />
        </mxCell>
        <mxCell id="YaRrDJVlMC0HSLVpGaCm-12" value="Country" style="rounded=0;whiteSpace=wrap;html=1;" vertex="1" parent="1">
          <mxGeometry x="490" y="799.4200000000001" width="90" height="40" as="geometry" />
        </mxCell>
        <mxCell id="YaRrDJVlMC0HSLVpGaCm-14" value="&lt;u&gt;name&lt;/u&gt;" style="ellipse;whiteSpace=wrap;html=1;" vertex="1" parent="1">
          <mxGeometry x="420" y="868.75" width="76.25" height="32.5" as="geometry" />
        </mxCell>
        <mxCell id="YaRrDJVlMC0HSLVpGaCm-15" value="" style="endArrow=none;html=1;rounded=0;exitX=0.5;exitY=0;exitDx=0;exitDy=0;entryX=0.25;entryY=1;entryDx=0;entryDy=0;" edge="1" parent="1" source="YaRrDJVlMC0HSLVpGaCm-14" target="YaRrDJVlMC0HSLVpGaCm-12">
          <mxGeometry width="50" height="50" relative="1" as="geometry">
            <mxPoint x="480" y="860" as="sourcePoint" />
            <mxPoint x="530" y="810" as="targetPoint" />
          </mxGeometry>
        </mxCell>
        <mxCell id="YaRrDJVlMC0HSLVpGaCm-16" value="flag" style="ellipse;whiteSpace=wrap;html=1;" vertex="1" parent="1">
          <mxGeometry x="470" y="907.5" width="76.25" height="32.5" as="geometry" />
        </mxCell>
        <mxCell id="YaRrDJVlMC0HSLVpGaCm-17" value="" style="endArrow=none;html=1;rounded=0;exitX=0.5;exitY=0;exitDx=0;exitDy=0;entryX=0.5;entryY=1;entryDx=0;entryDy=0;" edge="1" parent="1" source="YaRrDJVlMC0HSLVpGaCm-16" target="YaRrDJVlMC0HSLVpGaCm-12">
          <mxGeometry width="50" height="50" relative="1" as="geometry">
            <mxPoint x="480" y="860" as="sourcePoint" />
            <mxPoint x="530" y="810" as="targetPoint" />
          </mxGeometry>
        </mxCell>
        <mxCell id="YaRrDJVlMC0HSLVpGaCm-18" value="(IC_3)" style="text;html=1;align=center;verticalAlign=middle;resizable=0;points=[];autosize=1;strokeColor=none;fillColor=none;" vertex="1" parent="1">
          <mxGeometry x="480" y="945" width="50" height="20" as="geometry" />
        </mxCell>
        <mxCell id="YaRrDJVlMC0HSLVpGaCm-19" value="ISO code" style="ellipse;whiteSpace=wrap;html=1;" vertex="1" parent="1">
          <mxGeometry x="546.25" y="880" width="76.25" height="32.5" as="geometry" />
        </mxCell>
        <mxCell id="YaRrDJVlMC0HSLVpGaCm-20" value="" style="endArrow=none;html=1;rounded=0;entryX=0.75;entryY=1;entryDx=0;entryDy=0;exitX=0.5;exitY=0;exitDx=0;exitDy=0;" edge="1" parent="1" source="YaRrDJVlMC0HSLVpGaCm-19" target="YaRrDJVlMC0HSLVpGaCm-12">
          <mxGeometry width="50" height="50" relative="1" as="geometry">
            <mxPoint x="330" y="900" as="sourcePoint" />
            <mxPoint x="380" y="850" as="targetPoint" />
          </mxGeometry>
        </mxCell>
        <mxCell id="YaRrDJVlMC0HSLVpGaCm-22" value="(IC_4)" style="text;html=1;align=center;verticalAlign=middle;resizable=0;points=[];autosize=1;strokeColor=none;fillColor=none;" vertex="1" parent="1">
          <mxGeometry x="570" y="913.75" width="50" height="20" as="geometry" />
        </mxCell>
        <mxCell id="YaRrDJVlMC0HSLVpGaCm-24" value="&lt;span style=&quot;color: rgb(0, 0, 0); font-family: helvetica; font-size: 12px; font-style: normal; font-weight: 400; letter-spacing: normal; text-align: center; text-indent: 0px; text-transform: none; word-spacing: 0px; background-color: rgb(248, 249, 250); display: inline; float: none;&quot;&gt;(IC_2)&lt;/span&gt;" style="text;whiteSpace=wrap;html=1;" vertex="1" parent="1">
          <mxGeometry x="153.75" y="770" width="60" height="30" as="geometry" />
        </mxCell>
        <mxCell id="YaRrDJVlMC0HSLVpGaCm-25" value="resgistered_in&amp;gt;" style="shape=rhombus;perimeter=rhombusPerimeter;whiteSpace=wrap;html=1;align=center;rotation=90;" vertex="1" parent="1">
          <mxGeometry x="385" y="612.65" width="95" height="74.71" as="geometry" />
        </mxCell>
        <mxCell id="YaRrDJVlMC0HSLVpGaCm-26" value="" style="endArrow=none;html=1;rounded=0;entryX=1;entryY=0.5;entryDx=0;entryDy=0;exitX=0.25;exitY=0;exitDx=0;exitDy=0;" edge="1" parent="1" source="YaRrDJVlMC0HSLVpGaCm-12" target="YaRrDJVlMC0HSLVpGaCm-25">
          <mxGeometry width="50" height="50" relative="1" as="geometry">
            <mxPoint x="330" y="690" as="sourcePoint" />
            <mxPoint x="380" y="640" as="targetPoint" />
            <Array as="points">
              <mxPoint x="513" y="760" />
              <mxPoint x="433" y="760" />
            </Array>
          </mxGeometry>
        </mxCell>
        <mxCell id="YaRrDJVlMC0HSLVpGaCm-27" value="" style="triangle;whiteSpace=wrap;html=1;fillColor=#000000;rotation=90;" vertex="1" parent="1">
          <mxGeometry x="425" y="582.92" width="15" height="20" as="geometry" />
        </mxCell>
        <mxCell id="YaRrDJVlMC0HSLVpGaCm-28" value="" style="shape=link;html=1;rounded=0;startArrow=none;exitX=0.25;exitY=1;exitDx=0;exitDy=0;endArrow=none;entryX=0;entryY=0.5;entryDx=0;entryDy=0;" edge="1" parent="1" source="8WeWj6-gea-u3hQ84-Q1-51" target="YaRrDJVlMC0HSLVpGaCm-27">
          <mxGeometry relative="1" as="geometry">
            <mxPoint x="310" y="495.75" as="sourcePoint" />
            <mxPoint x="360" y="495.75" as="targetPoint" />
            <Array as="points">
              <mxPoint x="513" y="530" />
              <mxPoint x="433" y="530" />
            </Array>
          </mxGeometry>
        </mxCell>
        <mxCell id="YaRrDJVlMC0HSLVpGaCm-29" value="traveling_to&amp;gt;" style="shape=rhombus;perimeter=rhombusPerimeter;whiteSpace=wrap;html=1;align=center;rotation=90;" vertex="1" parent="1">
          <mxGeometry x="550" y="612.65" width="90" height="64.71" as="geometry" />
        </mxCell>
        <mxCell id="YaRrDJVlMC0HSLVpGaCm-30" value="" style="endArrow=none;html=1;rounded=0;entryX=0.75;entryY=1;entryDx=0;entryDy=0;exitX=0;exitY=0.5;exitDx=0;exitDy=0;" edge="1" parent="1" source="YaRrDJVlMC0HSLVpGaCm-29" target="8WeWj6-gea-u3hQ84-Q1-51">
          <mxGeometry width="50" height="50" relative="1" as="geometry">
            <mxPoint x="560" y="680" as="sourcePoint" />
            <mxPoint x="610" y="630" as="targetPoint" />
            <Array as="points">
              <mxPoint x="595" y="530" />
              <mxPoint x="558" y="530" />
            </Array>
          </mxGeometry>
        </mxCell>
        <mxCell id="YaRrDJVlMC0HSLVpGaCm-31" value="" style="endArrow=none;html=1;rounded=0;entryX=1;entryY=0.5;entryDx=0;entryDy=0;exitX=0.75;exitY=0;exitDx=0;exitDy=0;" edge="1" parent="1" source="YaRrDJVlMC0HSLVpGaCm-12" target="YaRrDJVlMC0HSLVpGaCm-29">
          <mxGeometry width="50" height="50" relative="1" as="geometry">
            <mxPoint x="560" y="750" as="sourcePoint" />
            <mxPoint x="610" y="700" as="targetPoint" />
            <Array as="points">
              <mxPoint x="558" y="760" />
              <mxPoint x="595" y="760" />
            </Array>
          </mxGeometry>
        </mxCell>
        <mxCell id="YaRrDJVlMC0HSLVpGaCm-32" value="flag of the country of registration" style="ellipse;whiteSpace=wrap;html=1;" vertex="1" parent="1">
          <mxGeometry x="640" y="548.75" width="130" height="50" as="geometry" />
        </mxCell>
        <mxCell id="YaRrDJVlMC0HSLVpGaCm-33" value="" style="endArrow=none;html=1;rounded=0;entryX=0;entryY=1;entryDx=0;entryDy=0;exitX=0;exitY=0;exitDx=0;exitDy=0;" edge="1" parent="1" source="YaRrDJVlMC0HSLVpGaCm-29" target="YaRrDJVlMC0HSLVpGaCm-32">
          <mxGeometry width="50" height="50" relative="1" as="geometry">
            <mxPoint x="550" y="550" as="sourcePoint" />
            <mxPoint x="600" y="500" as="targetPoint" />
          </mxGeometry>
        </mxCell>
        <mxCell id="YaRrDJVlMC0HSLVpGaCm-34" value="(IC_5)" style="text;html=1;align=center;verticalAlign=middle;resizable=0;points=[];autosize=1;strokeColor=none;fillColor=none;" vertex="1" parent="1">
          <mxGeometry x="755" y="538.67" width="50" height="20" as="geometry" />
        </mxCell>
        <mxCell id="YaRrDJVlMC0HSLVpGaCm-35" value="flag of the location jurisdiction country" style="ellipse;whiteSpace=wrap;html=1;" vertex="1" parent="1">
          <mxGeometry x="640" y="650" width="130" height="50" as="geometry" />
        </mxCell>
        <mxCell id="YaRrDJVlMC0HSLVpGaCm-36" value="" style="endArrow=none;html=1;rounded=0;entryX=0;entryY=0.5;entryDx=0;entryDy=0;exitX=1;exitY=0;exitDx=0;exitDy=0;" edge="1" parent="1" source="YaRrDJVlMC0HSLVpGaCm-29" target="YaRrDJVlMC0HSLVpGaCm-35">
          <mxGeometry width="50" height="50" relative="1" as="geometry">
            <mxPoint x="530" y="670" as="sourcePoint" />
            <mxPoint x="580" y="620" as="targetPoint" />
          </mxGeometry>
        </mxCell>
        <mxCell id="YaRrDJVlMC0HSLVpGaCm-37" value="(IC_6)" style="text;html=1;align=center;verticalAlign=middle;resizable=0;points=[];autosize=1;strokeColor=none;fillColor=none;" vertex="1" parent="1">
          <mxGeometry x="755" y="640.01" width="50" height="20" as="geometry" />
        </mxCell>
      </root>
    </mxGraphModel>
  </diagram>
</mxfile>
